<svg xmlns="http://www.w3.org/2000/svg" viewBox="0 0 24 24">
<circle cx="12" cy="12" r="12" fill="#25D366"/>
<path d="M12 5.5c-3.6 0-6.5 2.9-6.5 6.5 0 1.1.3 2.2.8 3.1L5.5 18.5l3.5-.9c.9.5 1.9.8 3 .8 3.6 0 6.5-2.9 6.5-6.5S15.6 5.5 12 5.5zm3.8 9.1c-.2.4-.9.8-1.3.9-.3.1-.7.1-1.1 0-.3-.1-.6-.2-1.1-.4-1.9-.8-3.1-2.7-3.2-2.8-.1-.1-.8-1-.8-1.9s.5-1.3.6-1.5c.2-.2.4-.2.5-.2h.4c.1 0 .3 0 .5.4.2.4.6 1.5.7 1.6.1.1.1.3 0 .4-.1.2-.1.3-.3.5-.1.2-.3.3-.4.5-.1.2-.3.3-.1.6.2.3.7 1.2 1.6 1.9 1.1.9 2 1.2 2.3 1.3.3.1.4.1.6-.1.2-.2.6-.7.8-1 .2-.3.4-.2.6-.1.2.1 1.4.7 1.7.8.3.1.4.2.5.3.1.2.1.7-.1 1.1z" fill="#fff"/>
</svg>
